<?xml version="1.0" encoding="UTF-8"?>
<svg width="32px" height="23px" viewBox="0 0 32 23" version="1.1" xmlns="http://www.w3.org/2000/svg" xmlns:xlink="http://www.w3.org/1999/xlink">
    <!-- Generator: Sketch 50 (54983) - http://www.bohemiancoding.com/sketch -->
    <title>Wallet light</title>
    <desc>Created with Sketch.</desc>
    <defs></defs>
    <g id="Main1-1:-My-account" stroke="none" stroke-width="1" fill="none" fill-rule="evenodd">
        <g id="My-Wallet-open-eye" transform="translate(-86.000000, -679.000000)" fill="#E6DDA6">
            <g id="footer" transform="translate(0.000000, 665.000000)">
                <g id="icon" transform="translate(74.000000, 9.000000)">
                    <g id="My-Wallet" transform="translate(0.000000, 5.000000)">
                        <g id="Wallet-light" transform="translate(12.000000, 0.000000)">
                            <path d="M0,4 L0,2 C0,0.8954305 0.889763236,0 2.00359486,0 L22.9964051,0 C24.10296,0 25,0.887729645 25,2 L25,4 L23.9982174,4 C26.7606256,4 29,6.23541279 29,8.99202633 L29,10.6086957 L27.2424242,10.6086957 L27.2424242,11 L29.4963495,11 C30.8790775,11 32,12.1096621 32,13.5 C32,14.8807119 30.8900024,16 29.4963495,16 L27.2424242,16 L27.2424242,16.3913043 L29,16.3913043 L29,18.0079737 C29,20.7649937 26.7605744,23 23.9982174,23 L5.00178261,23 C2.23937435,23 0,20.7645872 0,18.0079737 L0,4 Z M24,16 C24.4633067,15.5864057 24.8139891,15.1017067 25.0174243,14.5714286 L28.9884249,14.5714286 C29.5818311,14.5714286 30.0622883,14.0917337 30.0622883,13.5 C30.0622883,12.9041409 29.5815033,12.4285714 28.9884249,12.4285714 L25.0174243,12.4285714 C24.8139891,11.8982933 24.4633067,11.4135943 24,11 L27.2424242,11 L27.2424242,8.15655213 C27.2424242,6.78096651 26.1223962,5.65217391 24.7407717,5.65217391 L4.25922833,5.65217391 C2.88551111,5.65217391 1.75757576,6.77342223 1.75757576,8.15655213 L1.75757576,18.8434479 C1.75757576,20.2190335 2.87760376,21.3478261 4.25922833,21.3478261 L24.7407717,21.3478261 C26.1144889,21.3478261 27.2424242,20.2265778 27.2424242,18.8434479 L27.2424242,16 L24,16 Z M21.5,16 C19.5670034,16 18,14.8807119 18,13.5 C18,12.1192881 19.5670034,11 21.5,11 C23.4329966,11 25,12.1192881 25,13.5 C25,14.8807119 23.4329966,16 21.5,16 Z M21.5,14.5714286 C22.3284271,14.5714286 23,14.0917337 23,13.5 C23,12.9082663 22.3284271,12.4285714 21.5,12.4285714 C20.6715729,12.4285714 20,12.9082663 20,13.5 C20,14.0917337 20.6715729,14.5714286 21.5,14.5714286 Z M1.78571429,2.8 C1.78571429,3.46736221 2.32208141,4 2.98372378,4 L23.2142857,4 L23.2142857,2.8 C23.2142857,2.13263779 22.6779186,1.6 22.0162762,1.6 L2.98372378,1.6 C2.31541225,1.6 1.78571429,2.1372583 1.78571429,2.8 Z" id="Combined-Shape"></path>
                        </g>
                    </g>
                </g>
            </g>
        </g>
    </g>
</svg>