<?xml version="1.0" encoding="UTF-8"?>
<svg width="27px" height="24px" viewBox="0 0 27 24" version="1.1" xmlns="http://www.w3.org/2000/svg" xmlns:xlink="http://www.w3.org/1999/xlink">
    <!-- Generator: Sketch 50 (54983) - http://www.bohemiancoding.com/sketch -->
    <title>setting</title>
    <desc>Created with Sketch.</desc>
    <defs></defs>
    <g id="Main1-2:-Transfer" stroke="none" stroke-width="1" fill="none" fill-rule="evenodd">
        <g id="Transfer" transform="translate(-351.000000, -53.000000)" fill="#FFFFFF" fill-rule="nonzero">
            <g id="header" transform="translate(0.000000, 43.000000)">
                <g id="setting" transform="translate(351.000000, 10.000000)">
                    <path d="M25.1996573,9.68236923 C24.7036231,9.61477509 24.1944012,9.54994658 23.6862097,9.48966498 C23.6246497,9.48239931 23.5746805,9.44438346 23.5591231,9.39291441 C23.3245771,8.61839425 22.9842201,7.87101487 22.5475823,7.17154202 C22.518219,7.124573 22.5237311,7.06532265 22.5616458,7.02046301 C22.8741849,6.65085147 23.1839938,6.27720866 23.4825209,5.90998775 C23.8855712,5.4141411 23.8270506,4.71054323 23.3465223,4.27324379 L21.6792006,2.75607865 C21.1986209,2.31882609 20.4254381,2.26557577 19.8804136,2.63242167 C19.4777239,2.90345451 19.0671525,3.18536241 18.6600841,3.47031721 C18.6109392,3.50481741 18.5456702,3.50983307 18.4940525,3.48316103 C17.7254031,3.08584621 16.9040542,2.77614127 16.0528269,2.56267127 C15.9962123,2.54856181 15.954434,2.50309279 15.9463977,2.44693621 C15.8799954,1.9838085 15.8088022,1.52049328 15.7347242,1.06992814 C15.6344253,0.459940195 15.0463345,0 14.3667023,0 L12.0087243,0 C11.3290406,0 10.7409498,0.459940195 10.6408054,1.06988127 C10.5666759,1.52054016 10.4954827,1.9838085 10.4290804,2.44702996 C10.4209926,2.50313967 10.3792658,2.54851493 10.3225997,2.56267127 C9.47137238,2.77623502 8.64997199,3.08589308 7.8814771,3.48316103 C7.82980795,3.50983307 7.76459046,3.50467679 7.7153425,3.47031721 C7.3083256,3.18536241 6.89770268,2.90345451 6.49496149,2.6323748 C5.94988545,2.26557577 5.17670273,2.31891984 4.696226,2.75612552 L3.02890427,4.27329066 C2.54832452,4.71063698 2.48985544,5.41428172 2.89300874,5.9100815 C3.19199952,6.27786491 3.50180835,6.65141397 3.81383232,7.02046301 C3.85169556,7.0652289 3.85725913,7.12452612 3.82794732,7.17154202 C3.3912065,7.8711555 3.05090101,8.61853487 2.81635501,9.39291441 C2.80084911,9.44433659 2.75087995,9.48235244 2.68926848,9.48971185 C2.18133447,9.55004033 1.6721641,9.61482196 1.17587239,9.68241611 C0.505461311,9.77358852 0,10.3088104 0,10.927189 L0,13.0728578 C0,13.6912833 0.505461311,14.2264584 1.17576936,14.3176776 C1.67206107,14.3852718 2.18128295,14.4500534 2.68921696,14.510335 C2.75087995,14.5176944 2.80074608,14.5556634 2.8163035,14.6071793 C3.0508495,15.3816058 3.3912065,16.1289851 3.82789581,16.8285517 C3.85720762,16.8755676 3.85164404,16.9348649 3.81378081,16.9796307 C3.50098412,17.3495704 3.19117528,17.7231663 2.89295723,18.0900591 C2.48985544,18.5859058 2.548273,19.2895505 3.02885276,19.72685 L4.69617449,21.2440151 C5.17680576,21.6813145 5.95009151,21.7345649 6.49496149,21.3676721 C6.89765116,21.0966392 7.30822257,20.8147313 7.71529099,20.5297765 C7.76448743,20.4952763 7.82970493,20.4903076 7.88132256,20.5169327 C8.64992048,20.9142475 9.47121784,21.2238587 10.3225482,21.4374225 C10.3791628,21.4515788 10.4209411,21.497001 10.4289774,21.5530638 C10.4953797,22.0161915 10.5666244,22.4795536 10.6407024,22.9300719 C10.7409498,23.5400598 11.3290406,24 12.0087243,24 L14.3667023,24 C15.0463345,24 15.6344768,23.5400598 15.7346727,22.9299781 C15.8088022,22.4788973 15.8799954,22.0155821 15.9463462,21.55297 C15.954434,21.4968603 15.9961608,21.4514382 16.0527754,21.437235 C16.9040027,21.2236712 17.7254031,20.9140132 18.4939495,20.5167452 C18.5456187,20.4901669 18.6107846,20.4952295 18.6600326,20.529589 C19.0670495,20.8145438 19.4776724,21.0964517 19.8803621,21.3674846 C20.4252836,21.7342836 21.1985178,21.681127 21.6791491,21.2438276 L23.3464708,19.7266625 C23.8269991,19.289363 23.8855197,18.5857652 23.4824179,18.0898716 C23.1838907,17.7227913 22.8740304,17.3491485 22.5615428,16.9794432 C22.5236796,16.9346774 22.518116,16.8753801 22.5474793,16.8283642 C22.9841686,16.1287976 23.3244741,15.3814183 23.5590201,14.6070387 C23.5746805,14.5554759 23.6245467,14.5175069 23.6862097,14.5101475 C24.1942982,14.4498659 24.7035201,14.3850374 25.1996057,14.3174901 C25.8699653,14.2263177 26.3754266,13.6911427 26.3754266,13.0727172 L26.3754266,10.9270484 C26.3754266,10.3087635 25.8699653,9.77354164 25.1996573,9.68236923 Z M25.2762943,13.084708 C25.2762943,13.1534309 25.2213959,13.2126747 25.1485279,13.2226751 C24.6546509,13.2899288 24.1476482,13.3543861 23.6415831,13.4145305 C23.0812446,13.4809784 22.6227859,13.8422239 22.4735081,14.3349433 C22.2636547,15.0277649 21.9591614,15.6964624 21.5685183,16.3223147 C21.290745,16.7673073 21.3339241,17.3181805 21.6785234,17.7257784 C21.9897878,18.0939436 22.2982917,18.4659477 22.5954409,18.8314587 C22.6392971,18.8853469 22.6320051,18.9626957 22.5786172,19.0112757 L20.8927578,20.5452656 C20.8393178,20.5938929 20.754366,20.6003861 20.6951966,20.5606216 C20.2942926,20.2907065 19.8853674,20.0099853 19.4800361,19.7262308 C19.0321508,19.4126174 18.4268102,19.3733269 17.9378292,19.6260376 C17.250037,19.9815008 16.5151592,20.25862 15.7536655,20.4496222 C15.2122863,20.5854092 14.8152887,21.0025809 14.7421082,21.5125048 C14.6761156,21.9732799 14.6051748,22.4346238 14.5313172,22.8837398 C14.5204313,22.9500456 14.45522,23 14.3796956,23 L11.9955747,23 C11.9200504,23 11.8548391,22.9500456 11.8439531,22.8836924 C11.7702518,22.4350978 11.6992589,21.9737539 11.6331621,21.5125522 C11.5600858,21.0026283 11.1629841,20.5854566 10.6216048,20.4496696 C9.86005913,20.2586674 9.12518133,19.9815482 8.43744113,19.6260376 C8.22300411,19.5152752 7.98617022,19.4605813 7.75011762,19.4605813 C7.44781194,19.4605813 7.14670424,19.550158 6.89528634,19.7263256 C6.48990298,20.0100801 6.08102986,20.2908013 5.68012587,20.5607164 C5.62085229,20.6004808 5.53600461,20.5939877 5.48261672,20.5453603 L3.79675736,19.0113705 C3.74331738,18.9627431 3.73602538,18.8854891 3.77988158,18.8316009 C4.07682242,18.4663269 4.38527421,18.0943227 4.69679906,17.7258732 C5.04134627,17.3182753 5.08457744,16.7674969 4.80690833,16.3225517 C4.41610897,15.6965098 4.11166778,15.0278597 3.90181431,14.3350855 C3.75258864,13.8424608 3.2941299,13.481168 2.73379144,13.4146727 C2.22793467,13.3546231 1.72087992,13.2900235 1.22674245,13.2228173 C1.15387449,13.2128643 1.09897611,13.1535731 1.09897611,13.0848502 L1.09897611,10.9153868 C1.09897611,10.8466639 1.15387449,10.7873727 1.22674245,10.7774197 C1.72087992,10.710166 2.22788258,10.6456139 2.73368727,10.5855643 C3.29407782,10.5191164 3.75253656,10.1578235 3.90176222,9.66515146 C4.11151152,8.97242467 4.41605689,8.30372719 4.80685624,7.67768531 C5.08457744,7.23269271 5.04134627,6.68186685 4.69679906,6.27436377 C4.38610758,5.90676737 4.0776037,5.53481062 3.77988158,5.16863608 C3.73612955,5.11474785 3.74336947,5.03739904 3.79675736,4.98886646 L5.48251255,3.45482924 C5.53584835,3.40620186 5.62080021,3.39970874 5.6800217,3.43947322 C6.08092569,3.70934093 6.4897988,3.99006211 6.89518217,4.27386397 C7.34311959,4.58733517 7.94840805,4.6267205 8.43749321,4.37396242 C9.12518133,4.01849917 9.86005913,3.74138002 10.6215527,3.55037776 C11.1629841,3.4145908 11.5600858,2.99741912 11.6331621,2.48749523 C11.699311,2.02629351 11.7701997,1.5649496 11.8440052,1.11621279 C11.8548911,1.05000183 11.9201025,1 11.9956268,1 L14.3797477,1 C14.455272,1 14.5204834,1.04995444 14.5313693,1.11626018 C14.6051748,1.56485481 14.6760635,2.02615132 14.7422124,2.48749523 C14.8152887,2.99741912 15.2123905,3.4145908 15.7537697,3.55037776 C16.5152633,3.74138002 17.250089,4.01849917 17.9379334,4.37396242 C18.4269144,4.62657831 19.0322549,4.58733517 19.4800882,4.27376918 C19.8854716,3.99001471 20.2943447,3.70929353 20.6951966,3.43942583 C20.7544181,3.39951916 20.839422,3.40610707 20.8928099,3.45478184 L22.5786172,4.98877167 C22.6320572,5.03739904 22.639245,5.11470045 22.595493,5.16854129 C22.2983438,5.53414709 21.9898399,5.90610384 21.6785755,6.27426898 C21.3340283,6.68191425 21.2907971,7.2327401 21.5685704,7.6777327 C21.9592656,8.30358501 22.2637588,8.97223509 22.4736644,9.66515146 C22.6228901,10.1577761 23.081453,10.5190216 23.6416352,10.5854695 C24.1477003,10.6455665 24.654755,10.7101186 25.1486842,10.7773249 C25.2215521,10.7872779 25.2764505,10.8465691 25.2764505,10.915292 L25.2764505,13.084708 L25.2762943,13.084708 Z M13.1877133,7 C10.157801,7 7.69283276,9.24296795 7.69283276,12 C7.69283276,14.7570321 10.157801,17 13.1877133,17 C16.2176257,17 18.6825939,14.7570321 18.6825939,12 C18.6825939,9.24296795 16.2176257,7 13.1877133,7 Z M13.1877133,16 C10.7637544,16 8.79180887,14.2056062 8.79180887,12 C8.79180887,9.79434795 10.7638552,8 13.1877133,8 C15.6116218,8 17.5836177,9.79439381 17.5836177,12 C17.5836177,14.2056062 15.6116722,16 13.1877133,16 Z" id="Combined-Shape"></path>
                </g>
            </g>
        </g>
    </g>
</svg>